<svg xmlns="http://www.w3.org/2000/svg" width="239.062" height="33.321" viewBox="0 0 239.062 33.321">
  <g id="footer-logo" transform="translate(-137 -3826)">
    <g id="Group_3" data-name="Group 3" transform="translate(911.333 4209.333)">
      <path id="Path_34" data-name="Path 34" d="M-768.378-350.013h-5.955v-33.321h7.03l5.89,10.66-3.409,6.157-3.556-6.446Z" fill="#caf2f2" fill-rule="evenodd"/>
      <path id="Path_35" data-name="Path 35" d="M-665.5-366.572l9.26-16.762h6.841l-9.369,16.66,9.347,16.66h-6.841Z" transform="translate(-99.348)" fill="#11bfbe"/>
      <path id="Path_36" data-name="Path 36" d="M-559.5-366.572l9.26-16.762h6.841l-9.369,16.66,9.347,16.66h-6.841Z" transform="translate(-196.11)" fill="#11bfbe"/>
    </g>
    <g id="Group_5" data-name="Group 5" transform="translate(132.105 3773.646)">
      <path id="Path_25" data-name="Path 25" d="M359.706,76.12V72.45H342.29V69.734h17.392V66.075H342.274V63.482a9.244,9.244,0,0,1,.986-.1c4.926-.007,9.852-.018,14.778,0a4.18,4.18,0,0,1,4.414,4.368c.023,2.167.017,4.335-.005,6.5a4.134,4.134,0,0,1-4.515,4.467q-7.212.009-14.424,0c-.385,0-.77-.032-1.231-.053V76.12Z" transform="translate(-219.199 -0.775)" fill="#c9f3f5" fill-rule="evenodd"/>
      <path id="Path_26" data-name="Path 26" d="M516.612,78.673V76.134h17.424V72.5c-.447-.026-.9-.074-1.357-.075-4.1-.006-8.194,0-12.291-.006-2.835-.006-4.517-1.666-4.523-4.442-.007-2.89,1.634-4.575,4.51-4.582,4.806-.013,9.612,0,14.418,0h1.195v2.67H518.606v3.6c.4.021.814.063,1.228.063,4.136,0,8.273,0,12.409.005,2.887.006,4.558,1.687,4.549,4.554-.009,2.809-1.65,4.44-4.509,4.446q-7.209.013-14.418,0C517.481,78.731,517.1,78.7,516.612,78.673Z" transform="translate(-351.726 -0.793)" fill="#c9f3f5" fill-rule="evenodd"/>
      <path id="Path_27" data-name="Path 27" d="M164.65,78.674c-1.93,0-3.861.015-5.79,0a4.046,4.046,0,0,1-4.272-4.2q-.055-3.426-.006-6.854a4.1,4.1,0,0,1,4.348-4.279q5.672-.041,11.344,0c2.884.024,4.5,1.694,4.528,4.594.017,2.127.028,4.255,0,6.381a4.1,4.1,0,0,1-4.362,4.362C168.51,78.687,166.58,78.673,164.65,78.674ZM157.358,66.08v9.845h14.671V66.08Z" transform="translate(-75.889 -0.732)" fill="#c9f3f5" fill-rule="evenodd"/>
      <path id="Path_28" data-name="Path 28" d="M57.857,64.649v13.2H55.229c-.022-.4-.066-.811-.066-1.226-.005-3.627.008-7.254-.009-10.881a3.067,3.067,0,0,1,5.406-2.268q5.551,5.653,11.1,11.305a12.1,12.1,0,0,1,.852,1.087l.321-.215V62.717H75.5c.023.4.06.745.061,1.093.007,3.627-.009,7.254.018,10.88.011,1.461-.385,2.682-1.826,3.268a3.178,3.178,0,0,1-3.721-1c-3.686-3.782-7.405-7.531-11.114-11.29C58.658,65.4,58.378,65.148,57.857,64.649Z" transform="translate(0)" fill="#c9f3f5" fill-rule="evenodd"/>
      <path id="Path_29" data-name="Path 29" d="M757.9,76.775c2.8-3.987,5.634-7.772,8.168-11.748,1.183-1.857,2.607-1.9,4.558-1.61-.474.695-.869,1.3-1.291,1.889q-4.157,5.808-8.324,11.61c-1.942,2.7-4.4,2.709-6.321.031q-4.472-6.238-8.925-12.49c-.221-.309-.416-.636-.749-1.15a17.04,17.04,0,0,1,2.845.045,2.31,2.31,0,0,1,1.193.976c2.767,3.875,5.5,7.774,8.245,11.664C757.454,76.213,757.628,76.423,757.9,76.775Z" transform="translate(-526.668 -0.698)" fill="#c9f3f5" fill-rule="evenodd"/>
      <path id="Path_30" data-name="Path 30" d="M677.231,63.83c.3,2.593.3,2.593-2.1,2.593h-6.473v12.57h-2.617V66.458h-8.622V63.83Z" transform="translate(-459.79 -1.127)" fill="#c9f3f5" fill-rule="evenodd"/>
      <path id="Path_31" data-name="Path 31" d="M283.945,63.536l-14.487,7.372,14.6,7.434c-2.556.122-5.054.711-7.451-.75-2.378-1.45-4.943-2.6-7.438-3.85a3.052,3.052,0,0,1,.032-5.691c2.466-1.226,4.941-2.439,7.35-3.771a7.439,7.439,0,0,1,4.268-1.028c1.01.073,2.029.014,3.044.014Z" transform="translate(-161.911 -0.671)" fill="#c9f3f5" fill-rule="evenodd"/>
      <path id="Path_32" data-name="Path 32" d="M443.31,76.385h13.465v2.56c-.373.021-.75.06-1.126.06-3.548.005-7.1.012-10.644,0a4.046,4.046,0,0,1-4.355-4.239c-.03-3.39-.011-6.781-.006-10.171a8.307,8.307,0,0,1,.09-.849h2.576Z" transform="translate(-294.291 -1.064)" fill="#c9f3f5" fill-rule="evenodd"/>
      <path id="Path_33" data-name="Path 33" d="M256.169,78.71h-2.626V63.427a20.457,20.457,0,0,1,2.131.031c.185.019.473.41.474.631C256.176,68.919,256.169,73.75,256.169,78.71Z" transform="translate(-151.458 -0.81)" fill="#c9f3f5" fill-rule="evenodd"/>
    </g>
  </g>
</svg>
